Coordinates
version=1
nRows=14
nColumns=63
inDegrees=yes

Units are S.I. units (second, meters, Newtons, ...)
If the header above contains a line with 'inDegrees', this indicates whether rotational values are in degrees (yes) or radians (no).

endheader
time	pelvis_tilt	pelvis_list	pelvis_rotation	pelvis_tx	pelvis_ty	pelvis_tz	hip_flexion_r	hip_adduction_r	hip_rotation_r	knee_angle_r	knee_angle_r_beta	ankle_angle_r	subtalar_angle_r	mtp_angle_r	hip_flexion_l	hip_adduction_l	hip_rotation_l	knee_angle_l	knee_angle_l_beta	ankle_angle_l	subtalar_angle_l	mtp_angle_l	L5_S1_Flex_Ext	L5_S1_Lat_Bending	L5_S1_axial_rotation	L4_L5_Flex_Ext	L4_L5_Lat_Bending	L4_L5_axial_rotation	L3_L4_Flex_Ext	L3_L4_Lat_Bending	L3_L4_axial_rotation	L2_L3_Flex_Ext	L2_L3_Lat_Bending	L2_L3_axial_rotation	L1_L2_Flex_Ext	L1_L2_Lat_Bending	L1_L2_axial_rotation	L1_T12_Flex_Ext	L1_T12_Lat_Bending	L1_T12_axial_rotation	Abs_r3	Abs_r2	Abs_r1	Abs_t1	Abs_t2	neck_flexion	neck_bending	neck_rotation	arm_flex_r	arm_add_r	arm_rot_r	elbow_flex_r	pro_sup_r	wrist_flex_r	wrist_dev_r	arm_flex_l	arm_add_l	arm_rot_l	elbow_flex_l	pro_sup_l	wrist_flex_l	wrist_dev_l
1.355932	3.651378	-13.509146	89.664180	0.308040	1.004700	0.403900	12.019473	-2.934781	-2.185604	11.451127	0.199860	31.152148	6.771605	0.000000	12.311627	2.393940	-0.340391	10.786205	0.188255	28.400260	-9.898801	0.000000	0.215212	-0.168480	1.002660	0.399670	-0.224079	1.065326	0.353571	-0.409643	1.065326	0.245965	-0.409643	0.877327	0.199846	-0.343565	0.814661	0.122972	-0.260976	0.751995	1.537235	-1.905884	5.576493	0.000000	0.000000	28.106010	-4.787752	-17.080594	-19.024452	-11.544878	13.245684	105.657692	87.151098	6.852747	16.512552	-10.386700	-17.955972	18.968766	104.196936	85.985708	1.204512	9.090566
1.372881	3.781169	-13.430022	90.003962	0.307704	1.004865	0.403400	11.791304	-2.872733	-2.662305	11.362982	0.198321	30.918848	6.863157	0.000000	12.178106	2.337374	0.200887	10.780852	0.188161	28.251038	-10.059519	0.000000	0.211981	-0.155870	0.958276	0.393669	-0.207307	1.018168	0.348263	-0.378982	1.018168	0.242273	-0.378982	0.838491	0.196845	-0.317850	0.778599	0.121126	-0.241442	0.718707	1.514156	-1.763231	5.329642	0.000000	0.000000	28.071620	-5.042897	-17.427449	-18.787107	-11.463704	13.511635	106.389624	86.888651	7.702710	17.559627	-10.061047	-17.973718	19.568712	102.981229	85.926685	1.852940	9.236222
1.389831	3.866504	-13.348438	90.322581	0.307504	1.005058	0.402897	11.571277	-2.844924	-3.122949	11.278092	0.196840	30.671743	6.937901	0.000000	12.043097	2.311669	0.698789	10.779216	0.188133	28.067920	-10.178304	0.000000	0.209670	-0.151464	0.906837	0.389378	-0.201447	0.963515	0.344467	-0.368270	0.963515	0.239632	-0.368270	0.793483	0.194700	-0.308866	0.736805	0.119805	-0.234618	0.680128	1.497652	-1.713392	5.043556	0.000000	0.000000	28.037009	-5.216531	-17.868306	-18.255340	-11.334617	13.808872	107.525121	86.639140	8.405805	18.791335	-9.785642	-18.092644	20.554966	100.922203	85.926029	2.634577	8.869280
1.406780	3.910080	-13.266774	90.607688	0.307422	1.005264	0.402400	11.363743	-2.847439	-3.535673	11.197643	0.195436	30.424174	6.988907	0.000000	11.906880	2.316543	1.159290	10.773678	0.188036	27.850383	-10.283455	0.000000	0.208979	-0.154629	0.851357	0.388095	-0.205656	0.904567	0.343331	-0.375965	0.904567	0.238842	-0.375965	0.744937	0.194058	-0.315319	0.691727	0.119411	-0.239520	0.638518	1.492716	-1.749192	4.734992	0.000000	0.000000	28.004978	-5.329347	-18.392286	-17.447981	-11.186243	14.092153	108.870965	86.537590	8.814196	19.995537	-9.620095	-18.268964	21.796398	98.289132	85.953785	3.463399	7.977873
1.423729	3.918118	-13.184974	90.866695	0.307390	1.005470	0.401924	11.167812	-2.878307	-3.908686	11.123974	0.194150	30.205404	7.036484	0.000000	11.777002	2.351820	1.597729	10.774879	0.188057	27.615306	-10.394197	0.000000	0.209753	-0.163562	0.795564	0.389533	-0.217537	0.845286	0.344603	-0.397684	0.845286	0.239727	-0.397684	0.696118	0.194777	-0.333535	0.646395	0.119853	-0.253357	0.596673	1.498246	-1.850244	4.424686	0.000000	0.000000	27.978622	-5.393182	-18.947099	-16.490925	-11.064566	14.298939	110.207113	86.580029	8.762347	20.939111	-9.610151	-18.481792	23.088526	95.501480	85.985515	4.218574	6.642689
1.440678	3.923782	-13.105766	91.095680	0.307328	1.005652	0.401471	10.985702	-2.909171	-4.243176	11.056573	0.192974	30.042942	7.113642	0.000000	11.658609	2.387252	1.999875	10.787303	0.188274	27.409843	-10.489506	0.000000	0.212460	-0.171889	0.745949	0.394559	-0.228612	0.792571	0.349050	-0.417930	0.792571	0.242820	-0.417930	0.652705	0.197290	-0.350516	0.606084	0.121399	-0.266256	0.559462	1.517577	-1.944440	4.148745	0.000000	0.000000	27.959877	-5.448383	-19.427874	-15.588232	-11.024666	14.330066	111.363768	86.740659	8.359351	21.623178	-9.787411	-18.688936	24.196153	93.016200	86.021411	4.802005	4.901619
1.457627	3.935712	-13.031240	91.299979	0.307170	1.005801	0.401065	10.821393	-2.935895	-4.555452	10.996105	0.191918	29.955902	7.235793	0.000000	11.554617	2.418197	2.352733	10.806104	0.188602	27.250809	-10.564218	0.000000	0.217057	-0.177213	0.698278	0.403096	-0.235694	0.741920	0.356602	-0.430876	0.741920	0.248074	-0.430876	0.610993	0.201559	-0.361373	0.567351	0.124026	-0.274503	0.523708	1.550414	-2.004671	3.883611	0.000000	0.000000	27.950630	-5.503504	-19.758479	-14.928830	-11.189545	14.305362	112.108333	87.034249	7.335248	21.512160	-10.197950	-18.846083	24.837500	91.358794	86.046247	5.047487	3.240822
1.474576	3.964883	-12.954054	91.465970	0.306898	1.005914	0.400711	10.667029	-2.946399	-4.817805	10.937210	0.190890	29.957788	7.398426	0.000000	11.459516	2.430062	2.607775	10.838226	0.189163	27.169980	-10.573092	0.000000	0.222233	-0.176301	0.657860	0.412709	-0.234480	0.698977	0.365107	-0.428658	0.698977	0.253990	-0.428658	0.575628	0.206366	-0.359513	0.534512	0.126984	-0.273090	0.493395	1.587388	-1.994351	3.658822	0.000000	0.000000	27.951307	-5.587570	-19.866673	-14.687109	-11.520195	14.130213	112.331947	87.408618	6.044437	20.805464	-10.782815	-18.894075	24.893636	90.829575	86.071950	4.865505	1.806529
1.491525	4.021752	-12.877501	91.611099	0.306522	1.006010	0.400442	10.527595	-2.933346	-5.074218	10.879921	0.189890	30.034697	7.631837	0.000000	11.376992	2.412766	2.780975	10.879090	0.189876	27.162318	-10.530335	0.000000	0.228097	-0.167806	0.609340	0.423599	-0.223182	0.647423	0.374740	-0.408003	0.647423	0.260692	-0.408003	0.533172	0.211811	-0.342189	0.495089	0.130335	-0.259931	0.457005	1.629273	-1.898252	3.388965	0.000000	0.000000	27.961746	-5.670312	-19.673381	-14.840828	-12.069060	14.013880	111.862864	87.926637	4.506682	19.214131	-11.481263	-18.797438	24.304702	91.619277	86.440905	4.052617	0.717192
1.508475	4.113177	-12.797271	91.698675	0.306080	1.006100	0.400236	10.401215	-2.882946	-5.282129	10.822912	0.188895	30.174345	7.910591	0.000000	11.295342	2.352710	2.832556	10.926200	0.190698	27.225140	-10.430723	0.000000	0.234773	-0.149367	0.560809	0.435997	-0.198659	0.595859	0.385708	-0.363172	0.595859	0.268322	-0.363172	0.490708	0.218010	-0.304590	0.455657	0.134149	-0.231370	0.420607	1.676959	-1.689674	3.119051	0.000000	0.000000	27.980869	-5.778128	-19.145876	-15.396630	-12.767715	13.951729	110.739710	88.354263	2.953253	17.214598	-12.147152	-18.537743	23.137517	93.696771	86.797977	2.735341	0.207686
1.525424	4.235429	-12.709439	91.727555	0.305598	1.006201	0.400100	10.283564	-2.801141	-5.462250	10.765742	0.187898	30.359365	8.263979	0.000000	11.208577	2.255481	2.787289	10.976413	0.191575	27.329839	-10.326358	0.000000	0.241625	-0.121403	0.513109	0.448722	-0.161466	0.545178	0.396966	-0.295179	0.545178	0.276153	-0.295179	0.448970	0.224373	-0.247565	0.416901	0.138065	-0.188053	0.384832	1.725905	-1.373334	2.853758	0.000000	0.000000	28.006791	-5.896908	-18.273346	-16.287881	-13.536220	13.947326	109.096092	88.600684	1.604606	15.127672	-12.649876	-18.174123	21.566347	96.854429	86.946107	1.052490	0.381556
1.542373	4.378451	-12.613352	91.698151	0.305124	1.006324	0.400008	10.170995	-2.692473	-5.592658	10.708389	0.186897	30.563187	8.646244	0.000000	11.110082	2.128430	2.642679	11.023925	0.192404	27.459866	-10.213587	0.000000	0.248920	-0.086329	0.466552	0.462270	-0.114818	0.495711	0.408951	-0.209900	0.495711	0.284491	-0.209900	0.408233	0.231147	-0.176042	0.379073	0.142233	-0.133724	0.349914	1.778012	-0.976571	2.594820	0.000000	0.000000	28.037606	-5.985032	-17.094215	-17.399834	-14.292886	14.018409	107.189140	88.658221	0.607113	13.267749	-12.941053	-17.790655	19.831219	100.713881	86.780481	-0.790151	1.241537
1.559322	4.525703	-12.505445	91.613003	0.304714	1.006486	0.399940	10.052888	-2.570452	-5.675441	10.642868	0.185753	30.760802	9.051934	0.000000	10.988139	1.987591	2.425708	11.057854	0.192996	27.584297	-10.120243	0.000000	0.255649	-0.048130	0.424327	0.474766	-0.064012	0.450847	0.420006	-0.117022	0.450847	0.292181	-0.117022	0.371286	0.237396	-0.098146	0.344766	0.146078	-0.074553	0.318245	1.826077	-0.544452	2.359979	0.000000	0.000000	28.070142	-6.038355	-15.725172	-18.587348	-14.952382	14.169594	105.353307	88.519267	0.075673	11.899054	-13.002840	-17.460609	18.244183	104.725349	86.210006	-2.514861	2.716809
1.576271	4.659258	-12.395165	91.470675	0.304437	1.006681	0.399854	9.937676	-2.446101	-5.669513	10.574514	0.184560	30.935231	9.407568	0.000000	10.849333	1.845458	2.119311	11.080069	0.193384	27.690440	-10.010317	0.000000	0.263020	-0.011388	0.392999	0.488454	-0.015146	0.417561	0.432115	-0.027690	0.417561	0.300605	-0.027690	0.343874	0.244240	-0.023223	0.319312	0.150289	-0.017641	0.294749	1.878723	-0.128827	2.185742	0.000000	0.000000	28.101105	-6.063883	-14.339189	-19.706169	-15.439695	14.404793	103.937205	88.169849	-0.006246	11.221953	-12.815364	-17.214978	17.125654	108.213878	85.275887	-3.898101	4.630234
